<svg xmlns="http://www.w3.org/2000/svg" viewBox="0 0 180 180">
  <defs>
    <linearGradient id="bg" x1="0%" y1="0%" x2="100%" y2="100%">
      <stop offset="0%" style="stop-color:#6366f1"/>
      <stop offset="100%" style="stop-color:#8b5cf6"/>
    </linearGradient>
  </defs>
  <!-- Background - Apple adds its own rounding -->
  <rect width="180" height="180" fill="url(#bg)"/>
  <!-- Book/Manga icon -->
  <g fill="white">
    <!-- Left page -->
    <path d="M45 42 C45 35, 52 28, 59 28 L87 28 L87 140 C80 140, 59 133, 59 133 L45 133 L45 42 Z" opacity="0.9"/>
    <!-- Right page -->
    <path d="M93 28 L121 28 C128 28, 135 35, 135 42 L135 133 L121 133 C121 133, 100 140, 93 140 L93 28 Z"/>
    <!-- Center spine -->
    <rect x="87" y="28" width="6" height="112" opacity="0.3"/>
    <!-- Page lines left -->
    <rect x="54" y="49" width="25" height="3" rx="1.5" opacity="0.3"/>
    <rect x="54" y="63" width="25" height="3" rx="1.5" opacity="0.3"/>
    <rect x="54" y="77" width="19" height="3" rx="1.5" opacity="0.3"/>
    <!-- Page lines right -->
    <rect x="101" y="49" width="25" height="3" rx="1.5" opacity="0.3"/>
    <rect x="101" y="63" width="25" height="3" rx="1.5" opacity="0.3"/>
    <rect x="101" y="77" width="19" height="3" rx="1.5" opacity="0.3"/>
  </g>
</svg>
