<svg xmlns="http://www.w3.org/2000/svg" viewBox="0 0 512 512">
  <defs>
    <linearGradient id="bg" x1="0%" y1="0%" x2="100%" y2="100%">
      <stop offset="0%" style="stop-color:#6366f1"/>
      <stop offset="100%" style="stop-color:#8b5cf6"/>
    </linearGradient>
  </defs>
  <!-- Background -->
  <rect width="512" height="512" rx="96" fill="url(#bg)"/>
  <!-- Book/Manga icon -->
  <g fill="white">
    <!-- Left page -->
    <path d="M128 120 C128 100, 148 80, 168 80 L248 80 L248 400 C228 400, 168 380, 168 380 L128 380 L128 120 Z" opacity="0.9"/>
    <!-- Right page -->
    <path d="M264 80 L344 80 C364 80, 384 100, 384 120 L384 380 L344 380 C344 380, 284 400, 264 400 L264 80 Z"/>
    <!-- Center spine -->
    <rect x="248" y="80" width="16" height="320" opacity="0.3"/>
    <!-- Page lines left -->
    <rect x="152" y="140" width="72" height="8" rx="4" opacity="0.3"/>
    <rect x="152" y="180" width="72" height="8" rx="4" opacity="0.3"/>
    <rect x="152" y="220" width="56" height="8" rx="4" opacity="0.3"/>
    <!-- Page lines right -->
    <rect x="288" y="140" width="72" height="8" rx="4" opacity="0.3"/>
    <rect x="288" y="180" width="72" height="8" rx="4" opacity="0.3"/>
    <rect x="288" y="220" width="56" height="8" rx="4" opacity="0.3"/>
  </g>
</svg>
